<?xml version="1.0" encoding="UTF-8"?>
<svg id="Layer_4" data-name="Layer 4" xmlns="http://www.w3.org/2000/svg" viewBox="0 0 500 150">
  <defs>
    <style>
      .cls-1 {
        fill: #46c0b9;
      }

      .cls-2 {
        font-family: Poppins-Bold, Poppins;
        font-size: 34.97px;
        font-weight: 700;
      }

      .cls-2, .cls-3, .cls-4 {
        fill: #0e2038;
      }

      .cls-3 {
        font-family: Poppins-Medium, Poppins;
        font-size: 19.15px;
        font-weight: 500;
      }
    </style>
  </defs>
  <g>
    <polygon class="cls-4" points="81.28 123.46 81.28 64.17 98.17 64.17 150.22 106.22 150.22 64.17 166.08 64.17 166.08 123.46 150.57 123.46 97.48 81.4 97.48 123.46 81.28 123.46"/>
    <path class="cls-1" d="M118.51,45.56s12.41-19.65,0-19.99-71.7,54.46-61.7,87.21c0,0,3.79,10,20.34,1.72l.34,5.17s-38.61,25.16-31.02-22.75C53.12,54.93,121.61-11.32,135.75,25.56c0,0,3.45,13.79-12.06,28.27,0,0-13.1,6.2-5.17-8.27Z"/>
    <polygon class="cls-1" points="101.62 99.67 108.05 95.88 111.15 97.78 101.62 104.5 101.62 99.67"/>
    <polygon class="cls-1" points="126.09 81.06 144.02 67.62 128.85 83.47 126.09 81.06"/>
  </g>
  <text class="cls-2" transform="translate(180.96 96.21)"><tspan x="0" y="0">Clothing Nexus</tspan></text>
  <text class="cls-3" transform="translate(223.47 124.07) scale(.93 1)"><tspan x="0" y="0">Group Of Companies</tspan></text>
</svg>